<svg xmlns="http://www.w3.org/2000/svg" xmlns:xlink="http://www.w3.org/1999/xlink" width="500" zoomAndPan="magnify" viewBox="0 0 375 374.999991" height="500" preserveAspectRatio="xMidYMid meet" version="1.0"><defs><clipPath id="02509d66b1"><path d="M 28 9 L 337.613281 9 L 337.613281 318 L 28 318 Z M 28 9 " clip-rule="nonzero"/></clipPath><clipPath id="dd2a26b40f"><path d="M 37 9 L 337.730469 9 L 337.730469 310 L 37 310 Z M 37 9 " clip-rule="nonzero"/></clipPath></defs><path fill="#47b7dc" d="M 160.652344 186.976562 L 238.25 264.574219 L 154.101562 348.644531 C 180.441406 374.984375 223.144531 374.984375 249.480469 348.644531 L 321.425781 276.703125 L 196.214844 151.414062 Z M 160.652344 186.976562 " fill-opacity="1" fill-rule="nonzero"/><g clip-path="url(#02509d66b1)"><path fill="#47b7dc" d="M 335.785156 102.832031 L 272.023438 39.074219 C 232.964844 0.015625 169.726562 0.015625 130.667969 39.074219 L 58.277344 111.464844 C 19.21875 150.523438 19.21875 213.761719 58.277344 252.820312 L 122.039062 316.582031 C 123.75 318.292969 126.425781 318.292969 128.136719 316.582031 L 168.460938 276.257812 C 170.171875 274.542969 170.171875 271.867188 168.460938 270.15625 L 94.0625 195.832031 C 87.441406 189.210938 87.441406 178.570312 94.0625 171.949219 L 189.070312 77.015625 C 195.691406 70.394531 206.332031 70.394531 212.953125 77.015625 L 287.277344 151.339844 C 288.988281 153.050781 291.667969 153.050781 293.378906 151.339844 L 335.859375 108.859375 C 337.496094 107.222656 337.496094 104.542969 335.785156 102.832031 Z M 335.785156 102.832031 " fill-opacity="1" fill-rule="nonzero"/></g><path fill="#5271ff" d="M 165.414062 181.945312 L 240.921875 257.453125 L 159.042969 339.257812 C 184.667969 364.886719 226.222656 364.886719 251.851562 339.257812 L 321.859375 269.253906 L 200.015625 147.339844 Z M 165.414062 181.945312 " fill-opacity="1" fill-rule="nonzero"/><g clip-path="url(#dd2a26b40f)"><path fill="#5271ff" d="M 335.832031 100.066406 L 273.789062 38.023438 C 235.78125 0.015625 174.246094 0.015625 136.238281 38.023438 L 65.796875 108.460938 C 27.789062 146.46875 27.789062 208.003906 65.796875 246.011719 L 127.839844 308.054688 C 129.503906 309.722656 132.109375 309.722656 133.777344 308.054688 L 173.015625 268.816406 C 174.679688 267.152344 174.679688 264.546875 173.015625 262.882812 L 100.617188 190.558594 C 94.175781 184.117188 94.175781 173.761719 100.617188 167.320312 L 193.066406 74.941406 C 199.511719 68.5 209.863281 68.5 216.304688 74.941406 L 288.628906 147.265625 C 290.292969 148.929688 292.898438 148.929688 294.566406 147.265625 L 335.902344 105.929688 C 337.496094 104.335938 337.496094 101.730469 335.832031 100.066406 Z M 335.832031 100.066406 " fill-opacity="1" fill-rule="nonzero"/></g></svg>