<svg xmlns="http://www.w3.org/2000/svg" xmlns:xlink="http://www.w3.org/1999/xlink" width="50" zoomAndPan="magnify" viewBox="0 0 37.5 37.499999" height="50" preserveAspectRatio="xMidYMid meet" version="1.0"><defs><clipPath id="1748231b53"><path d="M 8 0.4375 L 28 0.4375 L 28 36.703125 L 8 36.703125 Z M 8 0.4375 " clip-rule="nonzero"/></clipPath></defs><path fill="#4e7896" d="M 15.304688 19.667969 C 15.304688 19.667969 14.355469 20.25 15.964844 20.417969 C 17.90625 20.664062 18.941406 20.625 21.089844 20.207031 C 21.089844 20.207031 21.667969 20.582031 22.453125 20.875 C 17.617188 22.949219 11.503906 20.75 15.304688 19.667969 Z M 14.683594 16.96875 C 14.683594 16.96875 13.652344 17.757812 15.261719 17.925781 C 17.371094 18.132812 19.023438 18.171875 21.875 17.589844 C 21.875 17.589844 22.246094 18.007812 22.867188 18.214844 C 17.039062 19.960938 10.511719 18.382812 14.683594 16.96875 Z M 26.089844 21.703125 C 26.089844 21.703125 26.789062 22.285156 25.304688 22.742188 C 22.535156 23.574219 13.695312 23.820312 11.214844 22.742188 C 10.347656 22.367188 12 21.828125 12.535156 21.746094 C 13.074219 21.621094 13.363281 21.621094 13.363281 21.621094 C 12.414062 20.957031 7.039062 22.992188 10.636719 23.574219 C 20.511719 25.191406 28.648438 22.867188 26.089844 21.703125 Z M 15.757812 14.144531 C 15.757812 14.144531 11.253906 15.222656 14.148438 15.597656 C 15.386719 15.761719 17.824219 15.722656 20.097656 15.554688 C 21.957031 15.390625 23.816406 15.058594 23.816406 15.058594 C 23.816406 15.058594 23.15625 15.347656 22.699219 15.640625 C 18.113281 16.84375 9.3125 16.304688 11.835938 15.058594 C 13.984375 14.019531 15.757812 14.144531 15.757812 14.144531 Z M 23.816406 18.671875 C 28.445312 16.261719 26.296875 13.9375 24.808594 14.226562 C 24.4375 14.308594 24.269531 14.394531 24.269531 14.394531 C 24.269531 14.394531 24.394531 14.144531 24.683594 14.058594 C 27.617188 13.023438 29.929688 17.175781 23.734375 18.796875 C 23.734375 18.796875 23.773438 18.753906 23.816406 18.671875 Z M 16.214844 25.234375 C 20.675781 25.523438 27.492188 25.066406 27.660156 22.949219 C 27.660156 22.949219 27.328125 23.78125 23.980469 24.402344 C 20.179688 25.109375 15.46875 25.027344 12.703125 24.570312 C 12.703125 24.570312 13.28125 25.066406 16.214844 25.234375 Z M 16.214844 25.234375 " fill-opacity="1" fill-rule="nonzero"/><g clip-path="url(#1748231b53)"><path fill="#f58219" d="M 21.007812 0.4375 C 21.007812 0.4375 23.566406 3.054688 18.570312 7 C 14.5625 10.199219 17.660156 12.023438 18.570312 14.101562 C 16.214844 11.984375 14.519531 10.113281 15.675781 8.371094 C 17.371094 5.792969 22.039062 4.550781 21.007812 0.4375 Z M 19.683594 12.359375 C 20.882812 13.730469 19.355469 14.976562 19.355469 14.976562 C 19.355469 14.976562 22.410156 13.394531 21.007812 11.445312 C 19.726562 9.574219 18.734375 8.660156 24.105469 5.546875 C 24.105469 5.546875 15.636719 7.664062 19.683594 12.359375 Z M 16.625 34.664062 L 16.625 30.59375 C 16.625 29.554688 16.046875 28.847656 14.601562 28.847656 C 13.777344 28.847656 13.074219 29.054688 12.453125 29.304688 L 12.660156 30.050781 C 13.113281 29.886719 13.691406 29.71875 14.3125 29.71875 C 15.097656 29.71875 15.46875 30.050781 15.46875 30.714844 L 15.46875 31.257812 L 15.058594 31.257812 C 13.074219 31.257812 12.164062 32.003906 12.164062 33.207031 C 12.164062 34.207031 12.785156 34.789062 13.898438 34.789062 C 14.601562 34.789062 15.140625 34.453125 15.636719 34.039062 L 15.71875 34.664062 Z M 15.46875 33.335938 C 15.058594 33.707031 14.601562 33.914062 14.1875 33.914062 C 13.652344 33.914062 13.320312 33.582031 13.320312 33 C 13.320312 32.421875 13.652344 32.003906 14.972656 32.003906 L 15.46875 32.003906 Z M 20.511719 34.664062 L 19.066406 34.664062 L 17.328125 28.972656 L 18.570312 28.972656 L 19.644531 32.460938 L 19.890625 33.5 C 20.429688 32.003906 20.839844 30.46875 21.007812 28.972656 L 22.246094 28.972656 C 21.914062 30.84375 21.335938 32.878906 20.511719 34.664062 Z M 27.203125 34.664062 L 27.203125 30.59375 C 27.203125 29.554688 26.625 28.847656 25.179688 28.847656 C 24.351562 28.847656 23.652344 29.054688 23.03125 29.304688 L 23.195312 30.050781 C 23.691406 29.886719 24.269531 29.71875 24.890625 29.71875 C 25.675781 29.71875 26.046875 30.050781 26.046875 30.714844 L 26.046875 31.257812 L 25.632812 31.257812 C 23.652344 31.257812 22.742188 32.003906 22.742188 33.207031 C 22.742188 34.207031 23.320312 34.789062 24.4375 34.789062 C 25.179688 34.789062 25.714844 34.453125 26.210938 34.039062 L 26.292969 34.664062 Z M 26.046875 33.335938 C 25.632812 33.707031 25.179688 33.914062 24.765625 33.914062 C 24.230469 33.914062 23.898438 33.582031 23.898438 33 C 23.898438 32.421875 24.230469 32.003906 25.550781 32.003906 L 26.046875 32.003906 Z M 10.882812 35.617188 C 10.554688 36.117188 10.058594 36.492188 9.4375 36.699219 L 8.898438 36.035156 C 9.3125 35.785156 9.726562 35.410156 9.890625 35.078125 C 10.058594 34.789062 10.097656 34.371094 10.097656 33.417969 L 10.097656 26.9375 L 11.339844 26.9375 L 11.339844 33.335938 C 11.339844 34.621094 11.214844 35.121094 10.882812 35.621094 Z M 10.882812 35.617188 " fill-opacity="1" fill-rule="nonzero"/></g></svg>